<svg xmlns="http://www.w3.org/2000/svg" viewBox="0 0 390 844" preserveAspectRatio="xMidYMin slice"><defs><radialGradient id="h"><stop offset="0" stop-color="#fff" stop-opacity=".45"/><stop offset="1" stop-color="#fff" stop-opacity="0"/></radialGradient></defs><circle cx="323.0" cy="184.9" r="6.2" fill="url(#h)" opacity="1.00"/><path d="M310.5 184.9H335.5M323.0 172.4V197.4" stroke="#fff" stroke-width=".7" stroke-opacity="0.70"/><circle cx="323.0" cy="184.9" r="1.39" fill="#fff" fill-opacity="1.00"/><circle cx="338.2" cy="164.0" r="0.58" fill="#fff" fill-opacity="0.49"/><circle cx="227.7" cy="62.7" r="0.66" fill="#fff" fill-opacity="0.48"/><circle cx="63.5" cy="250.3" r="0.91" fill="#fff" fill-opacity="0.56"/><circle cx="146.8" cy="59.8" r="6.9" fill="url(#h)" opacity="0.96"/><circle cx="146.8" cy="59.8" r="1.54" fill="#fff" fill-opacity="0.96"/><circle cx="231.2" cy="483.7" r="0.58" fill="#fff" fill-opacity="0.36"/><circle cx="255.5" cy="96.6" r="0.48" fill="#fff" fill-opacity="0.42"/><circle cx="191.4" cy="177.2" r="0.57" fill="#fff" fill-opacity="0.43"/><circle cx="291.2" cy="611.3" r="6.4" fill="url(#h)" opacity="0.92"/><path d="M278.4 611.3H303.9M291.2 598.6V624.1" stroke="#fff" stroke-width=".7" stroke-opacity="0.64"/><circle cx="291.2" cy="611.3" r="1.42" fill="#fff" fill-opacity="0.92"/><circle cx="313.3" cy="76.3" r="0.70" fill="#fff" fill-opacity="0.37"/><circle cx="61.9" cy="196.3" r="0.73" fill="#fff" fill-opacity="0.58"/><circle cx="191.8" cy="350.5" r="0.67" fill="#fff" fill-opacity="0.58"/><circle cx="284.9" cy="93.9" r="0.95" fill="#fff" fill-opacity="0.48"/><circle cx="145.6" cy="411.3" r="0.78" fill="#fff" fill-opacity="0.68"/><circle cx="370.0" cy="60.8" r="0.96" fill="#fff" fill-opacity="0.72"/><circle cx="15.3" cy="570.2" r="6.3" fill="url(#h)" opacity="0.91"/><circle cx="15.3" cy="570.2" r="1.40" fill="#fff" fill-opacity="0.91"/><circle cx="113.3" cy="590.0" r="0.84" fill="#fff" fill-opacity="0.60"/><circle cx="153.7" cy="719.5" r="0.60" fill="#fff" fill-opacity="0.57"/><circle cx="268.5" cy="266.3" r="1.02" fill="#fff" fill-opacity="0.61"/><circle cx="326.7" cy="81.7" r="0.85" fill="#fff" fill-opacity="0.35"/><circle cx="100.7" cy="91.8" r="0.71" fill="#fff" fill-opacity="0.36"/><circle cx="373.0" cy="323.8" r="6.8" fill="url(#h)" opacity="0.94"/><path d="M359.5 323.8H386.5M373.0 310.3V337.3" stroke="#fff" stroke-width=".7" stroke-opacity="0.66"/><circle cx="373.0" cy="323.8" r="1.50" fill="#fff" fill-opacity="0.94"/><circle cx="201.8" cy="398.1" r="0.95" fill="#fff" fill-opacity="0.63"/><circle cx="181.0" cy="636.7" r="0.49" fill="#fff" fill-opacity="0.53"/><circle cx="303.0" cy="446.8" r="0.47" fill="#fff" fill-opacity="0.45"/><circle cx="53.5" cy="182.0" r="0.99" fill="#fff" fill-opacity="0.67"/><circle cx="97.8" cy="381.1" r="1.02" fill="#fff" fill-opacity="0.39"/><circle cx="321.4" cy="223.9" r="0.69" fill="#fff" fill-opacity="0.49"/><circle cx="300.3" cy="61.1" r="0.57" fill="#fff" fill-opacity="0.42"/><circle cx="77.8" cy="410.9" r="7.3" fill="url(#h)" opacity="0.89"/><circle cx="77.8" cy="410.9" r="1.62" fill="#fff" fill-opacity="0.89"/><circle cx="23.4" cy="517.3" r="0.68" fill="#fff" fill-opacity="0.29"/><circle cx="290.4" cy="97.1" r="0.94" fill="#fff" fill-opacity="0.36"/><circle cx="70.7" cy="457.5" r="0.90" fill="#fff" fill-opacity="0.44"/><circle cx="158.2" cy="204.8" r="0.91" fill="#fff" fill-opacity="0.36"/><circle cx="101.1" cy="424.0" r="0.92" fill="#fff" fill-opacity="0.66"/><circle cx="312.1" cy="248.8" r="0.97" fill="#fff" fill-opacity="0.33"/><circle cx="116.8" cy="234.1" r="7.3" fill="url(#h)" opacity="0.86"/><path d="M102.2 234.1H131.4M116.8 219.5V248.7" stroke="#fff" stroke-width=".7" stroke-opacity="0.61"/><circle cx="116.8" cy="234.1" r="1.62" fill="#fff" fill-opacity="0.86"/><circle cx="237.6" cy="135.1" r="0.96" fill="#fff" fill-opacity="0.34"/><circle cx="182.4" cy="380.6" r="0.47" fill="#fff" fill-opacity="0.29"/><circle cx="189.9" cy="175.4" r="0.62" fill="#fff" fill-opacity="0.62"/><circle cx="126.8" cy="439.2" r="0.49" fill="#fff" fill-opacity="0.56"/><circle cx="60.2" cy="204.3" r="0.45" fill="#fff" fill-opacity="0.56"/><circle cx="181.3" cy="671.9" r="0.73" fill="#fff" fill-opacity="0.50"/><circle cx="315.9" cy="222.1" r="0.74" fill="#fff" fill-opacity="0.37"/><circle cx="203.8" cy="331.5" r="0.93" fill="#fff" fill-opacity="0.68"/><circle cx="96.7" cy="178.0" r="0.47" fill="#fff" fill-opacity="0.43"/><circle cx="163.6" cy="62.2" r="6.8" fill="url(#h)" opacity="0.99"/><circle cx="163.6" cy="62.2" r="1.52" fill="#fff" fill-opacity="0.99"/><circle cx="146.9" cy="231.0" r="0.54" fill="#fff" fill-opacity="0.54"/><circle cx="208.5" cy="345.1" r="0.75" fill="#fff" fill-opacity="0.49"/><circle cx="249.9" cy="610.9" r="0.76" fill="#fff" fill-opacity="0.53"/><circle cx="175.0" cy="699.0" r="0.45" fill="#fff" fill-opacity="0.46"/><circle cx="307.4" cy="536.7" r="0.69" fill="#fff" fill-opacity="0.69"/><circle cx="188.8" cy="113.6" r="0.56" fill="#fff" fill-opacity="0.70"/><circle cx="278.6" cy="357.1" r="7.2" fill="url(#h)" opacity="0.96"/><path d="M264.1 357.1H293.0M278.6 342.6V371.6" stroke="#fff" stroke-width=".7" stroke-opacity="0.67"/><circle cx="278.6" cy="357.1" r="1.61" fill="#fff" fill-opacity="0.96"/><circle cx="283.1" cy="525.7" r="0.62" fill="#fff" fill-opacity="0.29"/><circle cx="373.2" cy="478.9" r="0.50" fill="#fff" fill-opacity="0.71"/><circle cx="354.0" cy="148.9" r="0.85" fill="#fff" fill-opacity="0.50"/><circle cx="142.4" cy="775.8" r="0.71" fill="#fff" fill-opacity="0.46"/><circle cx="178.2" cy="112.9" r="0.59" fill="#fff" fill-opacity="0.80"/><circle cx="246.1" cy="246.1" r="0.88" fill="#fff" fill-opacity="0.48"/><circle cx="144.0" cy="63.7" r="6.2" fill="url(#h)" opacity="0.93"/><circle cx="144.0" cy="63.7" r="1.37" fill="#fff" fill-opacity="0.93"/><circle cx="64.3" cy="183.2" r="0.70" fill="#fff" fill-opacity="0.48"/></svg>
